<?xml version="1.0"?>
<svg xmlns="http://www.w3.org/2000/svg" viewBox="0 0 50 50">
    <path d="M 23.810547 3.0078125 L 6.8984375 34.384766 L 19.291016 29.072266 L 23.810547 3.0078125 z M 26.189453 3.0078125 L 29.929688 24.513672 L 36.292969 21.787109 L 26.189453 3.0078125 z M 25.001953 7.8457031 L 21.484375 28.132812 L 28.041016 25.322266 L 25.001953 7.8457031 z M 37.246094 23.552734 L 30.28125 26.537109 L 32.449219 39 L 45.595703 39 L 37.246094 23.552734 z M 28.392578 27.347656 L 21.076172 30.482422 L 19.599609 39 L 30.419922 39 L 28.392578 27.347656 z M 18.882812 31.423828 L 10.101562 35.185547 L 10.419922 39 L 17.568359 39 L 18.882812 31.423828 z M 8.1640625 36.017578 L 5.3671875 37.214844 L 4.4042969 39 L 8.4121094 39 L 8.1640625 36.017578 z M 4.53125 41 L 9.0292969 46.398438 L 8.5800781 41 L 4.53125 41 z M 10.587891 41 L 11.101562 47.167969 L 16.03125 47.871094 L 17.222656 41 L 10.587891 41 z M 32.796875 41 L 33.990234 47.869141 L 39.173828 47.128906 L 38.152344 41 L 32.796875 41 z M 40.179688 41 L 41.0625 46.287109 L 45.46875 41 L 40.179688 41 z"/>
</svg>
